<?xml version="1.0" encoding="iso-8859-1"?>
<!-- Generator: Adobe Illustrator 19.0.0, SVG Export Plug-In . SVG Version: 6.00 Build 0)  -->
<svg version="1.1" id="Layer_1" xmlns="http://www.w3.org/2000/svg" xmlns:xlink="http://www.w3.org/1999/xlink" x="0px" y="0px"
	 viewBox="0 0 512 512" style="enable-background:new 0 0 512 512;" xml:space="preserve">
<circle style="fill:#FFEDB5;" cx="256" cy="256" r="256"/>
<path style="fill:#FEE187;" d="M277.699,511.076c111.809-9.387,203.18-90.614,227.771-197.382l-88.566-88.566l-32.194,24.255
	l-48.693-48.693l-99.918,96.896l-86.904-86.904l-23.933,44.623l76.033,76.031l-52.46,50.874L277.699,511.076z"/>
<path style="fill:#477B9E;" d="M348.084,388.33h-184.17c-11.981,0-21.694-9.712-21.694-21.692V219.389l112.63-104.143
	l114.926,104.143v147.249C369.778,378.618,360.065,388.33,348.084,388.33z"/>
<path style="fill:#386895;" d="M255.426,115.764V388.33h92.66c11.981,0,21.692-9.712,21.692-21.692V219.388L255.426,115.764z"/>
<polygon style="fill:#273B7A;" points="256,124.568 386.736,255.3 416.906,225.128 256,64.228 95.094,225.137 125.264,255.307 "/>
<polygon style="fill:#121149;" points="256,64.228 255.426,64.802 255.426,125.142 256,124.568 386.736,255.3 416.906,225.128 "/>
<rect x="227.556" y="284.444" style="fill:#273B7A;" width="56.889" height="103.883"/>
<rect x="255.431" y="284.444" style="fill:#121149;" width="29.018" height="103.883"/>
<g>
</g>
<g>
</g>
<g>
</g>
<g>
</g>
<g>
</g>
<g>
</g>
<g>
</g>
<g>
</g>
<g>
</g>
<g>
</g>
<g>
</g>
<g>
</g>
<g>
</g>
<g>
</g>
<g>
</g>
</svg>
